<?xml version="1.0" encoding="utf-8"?>
<!-- Generator: Adobe Illustrator 27.5.0, SVG Export Plug-In . SVG Version: 6.00 Build 0)  -->
<svg version="1.1" id="Character_4" xmlns="http://www.w3.org/2000/svg" xmlns:xlink="http://www.w3.org/1999/xlink" x="0px"
	 y="0px" viewBox="0 0 500 500" enable-background="new 0 0 500 500" xml:space="preserve">
	<path fill="#E0E0E0" d="M415.7,428.2h3.4l7.4-10.4l0-6.8c0,0,5.3-0.3,4.7,8.6c-0.6,8.9,0.1,6.6,0.1,6.6s11.2,0,12.1,1
	c0.7,0.7,1,11.8,1.1,17.9c0.1,3-1.8,5.9-4.6,6.6c-0.4,0.1-0.8,0.2-1.2,0.2c-2.8,0-17.1-2.3-17.1-2.3l-5.9,0V428.2z"/>
	<polygon fill="#E0E0E0" points="406,426.4 408.1,449.7 413.9,449.7 413.9,426.8 "/>
	<path fill="#E0E0E0" d="M241.2,77.2l14.7,21c1.6,2.3,5,2.2,6.6-0.1l14.2-21.9L241.2,77.2z"/>
	<path fill="#E0E0E0" d="M278.5,88.9h-41.3c-6.4,0-11.6-5.2-11.6-11.6V53.6c0-6.4,5.2-11.6,11.6-11.6h41.3c6.4,0,11.6,5.2,11.6,11.6
	v23.7C290.1,83.7,284.9,88.9,278.5,88.9z"/>
	<path fill="#FFFFFF" d="M270.5,61.2c-2.1-3.8-5.5-4.4-7.8-3.5c-2.5,0.9-3.8,3.5-3.8,3.5s-1.3-2.6-3.8-3.5c-2.3-0.9-5.7-0.3-7.8,3.5
	c-4.3,7.9,11.6,18.1,11.6,18.1S274.8,69,270.5,61.2z"/>
	<path fill="#E0E0E0" d="M79.8,404.9h33.9c7.5,0,13.7,6.1,13.7,13.7v17.2c0,7.5-6.1,13.7-13.7,13.7h-8.9l-6.2,8.9
	c-1.5,2.2-4.8,2.1-6.2-0.1l-5.7-8.8h-6.8c-7.5,0-13.7-6.1-13.7-13.7v-17.2C66.2,411,72.3,404.9,79.8,404.9z"/>
	<polygon fill="#FFFFFF" points="95.6,418.6 95.6,436.1 83,427.4 "/>
	<path fill="#FFFFFF" d="M112.4,437.5c0,0-0.8-12.5-10.8-12.7h-6.4v5.4l6.3,0.1C101.5,430.3,108,430.2,112.4,437.5z"/>
	<ellipse transform="matrix(0.2306 -0.973 0.973 0.2306 -142.7211 257.5344)" fill="#E0E0E0" cx="91.5" cy="219" rx="9" ry="9"/>
	<path fill="#E0E0E0" d="M91.5,226.9c-8.5,0-15.4,6.9-15.4,15.4h30.7C106.9,233.8,100,226.9,91.5,226.9z"/>
	<path fill="#E0E0E0" d="M343.3,50.1c0,3.5-2.8,6.3-6.3,6.3s-6.3-2.8-6.3-6.3c0-3.5,2.8-6.3,6.3-6.3S343.3,46.7,343.3,50.1z"/>
	<path fill="#E0E0E0" d="M360.6,64.8c0,3.5-2.8,6.3-6.3,6.3s-6.3-2.8-6.3-6.3c0-3.5,2.8-6.3,6.3-6.3S360.6,61.3,360.6,64.8z"/>
	<path fill="#E0E0E0" d="M343.4,79.7c0,3.5-2.8,6.3-6.3,6.3s-6.3-2.8-6.3-6.3c0-3.5,2.8-6.3,6.3-6.3S343.4,76.2,343.4,79.7z"/>
	<polyline fill="none" stroke="#E0E0E0" stroke-miterlimit="10" points="337,50.1 354.3,64.8 337.1,79.7 "/>
	<path fill="#E0E0E0" d="M451.1,196.7c-2.7-4.9-7.2-5.7-10.2-4.6c-3.3,1.2-5,4.6-5,4.6s-1.7-3.4-5-4.6c-3-1.1-7.5-0.4-10.2,4.6
	c-5.6,10.3,15.2,23.7,15.2,23.7S456.7,207,451.1,196.7z"/>
	<path fill="#E0E0E0" d="M426.5,244.7c-1.9-3.5-5.1-4.1-7.3-3.3c-2.3,0.9-3.5,3.3-3.5,3.3s-1.2-2.4-3.5-3.3c-2.1-0.8-5.3-0.3-7.3,3.3
	c-4,7.3,10.8,16.9,10.8,16.9S430.5,252.1,426.5,244.7z"/>
	<path fill="#FFFFFF" d="M442.8,74.3h-66.7c-8.2,0-14.8,6.6-14.8,14.8v40.4c0,8.2,6.6,14.8,14.8,14.8h20.6l11.6,16.5
	c1.6,2.3,4.9,2.2,6.4-0.1l10.7-16.4h17.4c8.2,0,14.8-6.6,14.8-14.8V89.2C457.6,81,450.9,74.3,442.8,74.3z"/>
	<path fill="#263238" d="M442.8,74.3c0,0,0.2,0,0.5,0c0.3,0,0.8,0,1.5,0.1c1.3,0.1,3.2,0.5,5.4,1.8c2.2,1.2,4.6,3.4,6.2,6.7
	c0.8,1.6,1.3,3.6,1.4,5.6c0.1,2.1,0,4.2,0,6.5c0,9.2,0,20.3,0.1,33c0,1.6,0,3.2-0.4,4.8c-0.3,1.6-1,3.2-1.9,4.6
	c-1.8,2.9-4.6,5.2-8.1,6.3c-1.7,0.6-3.5,0.8-5.3,0.7c-1.8,0-3.6,0-5.5,0c-3.7,0-7.4,0-11.3,0l0.2-0.1c-2,3.1-4,6.2-6.1,9.4
	c-1,1.6-2.1,3.2-3.2,4.8c-0.5,0.8-1,1.6-1.6,2.5c-0.6,0.8-1.6,1.4-2.7,1.5c-1,0.1-2.1-0.1-3-0.7c-0.4-0.3-0.8-0.7-1.1-1.1l-0.9-1.2
	c-1.2-1.6-2.3-3.3-3.5-5c-2.3-3.3-4.7-6.7-7.1-10.2l0.2,0.1c-3.6,0-7.4,0-11.3,0c-2.8,0-5.6,0-8.4,0c-1.4,0-2.8-0.1-4.2-0.4
	c-1.4-0.3-2.7-0.8-3.9-1.5c-2.4-1.3-4.5-3.3-5.9-5.7c-1.4-2.4-2.1-5.1-2-7.8c0-10.6,0-20.8,0-30.6c0-2.4,0-4.8,0-7.2
	c0-1.2,0-2.4,0.1-3.6c0-0.6,0.2-1.2,0.2-1.8c0.1-0.6,0.3-1.1,0.5-1.7c0.7-2.2,2-4.2,3.6-5.9c1.6-1.6,3.5-2.8,5.6-3.6
	c0.5-0.2,1-0.3,1.6-0.5c0.5-0.2,1.1-0.2,1.6-0.3c1.1-0.1,2.1-0.1,3.2-0.1c2.1,0,4.1,0,6.2,0c4,0,7.9,0,11.6,0
	c14.7,0,26.7,0.1,34.9,0.1c4.1,0,7.3,0,9.5,0c1.1,0,1.9,0,2.5,0C442.5,74.3,442.8,74.3,442.8,74.3s-0.3,0-0.8,0c-0.6,0-1.4,0-2.5,0
	c-2.2,0-5.4,0-9.5,0c-8.3,0-20.2,0-34.9,0.1c-3.7,0-7.5,0-11.6,0c-2,0-4.1,0-6.2,0c-1.1,0-2.1,0-3.1,0.1c-0.5,0.1-1,0.1-1.6,0.3
	c-0.5,0.1-1,0.3-1.5,0.5c-2,0.7-3.9,1.9-5.4,3.5c-1.5,1.6-2.7,3.5-3.5,5.7c-0.2,0.5-0.3,1.1-0.4,1.7c-0.1,0.6-0.2,1.1-0.2,1.7
	c-0.1,1.1-0.1,2.3-0.1,3.5c0,2.4,0,4.8,0,7.2c0,9.7,0,20,0,30.6c0,2.6,0.6,5.3,2,7.5c1.3,2.3,3.3,4.2,5.7,5.5
	c1.2,0.6,2.5,1.1,3.8,1.4c1.3,0.3,2.7,0.4,4.1,0.3c2.8,0,5.6,0,8.4,0c3.9,0,7.7,0,11.3,0l0.1,0l0.1,0.1c2.4,3.4,4.8,6.8,7.1,10.2
	c1.2,1.7,2.3,3.3,3.5,5l0.9,1.2c0.3,0.4,0.6,0.8,1,1c0.8,0.6,1.7,0.8,2.6,0.6c0.9-0.1,1.8-0.6,2.3-1.4c0.5-0.8,1.1-1.6,1.6-2.4
	c1.1-1.6,2.1-3.2,3.2-4.8c2.1-3.2,4.1-6.3,6.1-9.4l0.1-0.1l0.1,0c3.8,0,7.6,0,11.3,0c1.8,0,3.7,0,5.5,0c1.8,0,3.5-0.2,5.2-0.7
	c3.3-1.1,6.1-3.3,7.8-6.1c0.9-1.4,1.5-2.9,1.9-4.5c0.4-1.6,0.4-3.1,0.4-4.7c0-12.6,0-23.8,0.1-33c0-2.3,0-4.5,0-6.5
	c-0.1-2-0.6-3.9-1.3-5.5c-1.5-3.3-3.9-5.4-6-6.6c-2.2-1.3-4.1-1.7-5.3-1.8c-0.6-0.1-1.1-0.1-1.5-0.1
	C442.9,74.4,442.8,74.3,442.8,74.3z"/>
	<polygon fill="#FF725E" points="411.3,95.9 411.3,123.5 431.1,109.7 "/>
	<path fill="#FF725E" d="M384.8,125.7c0,0,1.3-19.6,17-19.9h10v8.4l-9.9,0.1C402,114.3,391.7,114.1,384.8,125.7z"/>
	<path fill="#FFFFFF" d="M48.2,171.7h137.6c7.7,0,14-6.3,14-14V51.3c0-7.7-6.3-14-14-14H48.2c-7.7,0-14,6.3-14,14v106.4
	C34.2,165.4,40.5,171.7,48.2,171.7z"/>
	<path fill="#455A64" d="M110.4,167.6c-1.7,4.1-34.5,35-34.5,35v-35H110.4z"/>
	<path fill="#263238" d="M150.5,96.3c0.1-7,1.2-14,0.9-21c-0.3-7-2.1-14.3-7-19.3c-4.9-5-13.4-6.9-19.1-2.9l-1.2,6
	c2.3,27,4.5,54.1,6.8,81.1c0.3,3.6,0.6,7.2,2.2,10.4c1.6,3.2,4.9,5.8,8.4,5.6c4.7-0.3,7.7-5,9.2-9.4
	C156,130.6,150.3,113.2,150.5,96.3z"/>
	<path fill="#FF725E" d="M133.7,59.9c-1-1.7-2.1-3.5-3.6-4.8c-1.5-1.3-3.5-2.2-5.5-1.8c-0.9,0.2-1.9,0.7-2.2,1.6
	c-0.3,0.9,0.4,2.1,1.3,2l0.2,0.2c2.1,1.9,4.2,3.7,6.4,5.4c0.5,0.4,1.1,0.9,1.8,1.1c0.7,0.2,1.5,0.1,2-0.4
	C134.8,62.3,134.3,60.9,133.7,59.9z"/>
	<path fill="#263238" d="M137.6,66.8c-7-8.5-16.4-13.5-27.4-13.6c-6.2-0.1-8.8,1.2-13.3,2.4c-4.5,1.2-8.5,3.6-11.2,7.4
	c-3.2,4.5-5.8,9.6-6.4,15c-0.6,5.6-1.2,11.3-0.8,17c0.4,5.7,2,11.3,5.3,15.9l14.4,2.5c7.9,0.3,16,0.5,23.7-1.3
	c7.7-1.8,15.3-6,19.4-12.8C147,89.9,144.6,75.3,137.6,66.8z"/>
	<path fill="#B56760" d="M98.1,138.9c0.1-5,0.3-11.4,0.3-11.3c0,0-11.7-1.3-15-16.3c-1.6-7.5-1.9-19.9-1.8-30
	c0.1-9.1,7.8-21.5,19.1-21.6l5-0.6l19.2,7.6c2.8,0.1,5,2.4,5.1,5.1l0.7,66.1l-12.3,20.5l-22-17L98.1,138.9z"/>
	<path fill="#8A4A43" d="M105.9,107.7c-0.1-0.8-0.5-1.5-1.1-2c-1.1-1-2.8-1.1-4-0.2c-1.2,0.8-1.9,2.5-1.7,4.1l0,0
	c0.7,0.9,1.7,1.6,2.8,1.7c0.2,0,0.4,0,0.5,0c0.9,0,1.7-0.3,2.4-1C105.6,109.7,106.1,108.7,105.9,107.7z"/>
	<path fill="#263238" d="M87.6,93c0,1,0.9,1.9,2,1.9c1.1,0,1.9-0.8,1.9-1.9c0-1-0.9-1.9-2-1.9C88.4,91.1,87.6,91.9,87.6,93z
										"/>
	<path fill="#263238" d="M85,86.3c0.3,0.2,1.7-0.9,3.8-1c2.1-0.1,3.7,0.9,3.9,0.6c0.1-0.1-0.2-0.6-0.9-1
											c-0.7-0.4-1.8-0.9-3.1-0.8c-1.3,0.1-2.4,0.6-3,1.1C85.1,85.7,84.9,86.2,85,86.3z"/>
	<path fill="#263238" d="M98.4,102.7c0-0.1-1.3-0.3-3.4-0.4c-0.5,0-1-0.1-1.2-0.5c-0.1-0.4,0-1,0.3-1.6
										c0.4-1.3,0.9-2.7,1.4-4.2c1.9-5.9,3.2-10.8,3-10.8c-0.2-0.1-2,4.7-3.8,10.6c-0.4,1.5-0.9,2.8-1.3,4.2
										c-0.2,0.6-0.5,1.3-0.2,2.1c0.2,0.4,0.6,0.7,0.9,0.7c0.3,0.1,0.6,0.1,0.9,0.1C97.1,102.9,98.4,102.8,98.4,102.7z"/>
	<path fill="#8A4A43" d="M98.4,127.6c0,0,10.2,0.1,20-6.5c0,0-4.8,10.8-20.1,10.2L98.4,127.6z"/>
	<path fill="#263238" d="M104.7,103.8c-0.3,0-0.2,2.3-2.1,4c-1.9,1.7-4.3,1.6-4.3,1.9c0,0.1,0.6,0.4,1.6,0.4
										c1,0,2.4-0.4,3.6-1.5c1.1-1.1,1.6-2.4,1.6-3.3C105.1,104.4,104.8,103.8,104.7,103.8z"/>
	<path fill="#263238" d="M85.7,79c0.4,0.5,2,0.1,3.8,0.1c1.9,0,3.5,0.5,3.8,0c0.2-0.2-0.1-0.7-0.7-1.2
												C92,77.4,90.9,77,89.6,77c-1.3,0-2.4,0.4-3.1,0.8C85.8,78.3,85.5,78.8,85.7,79z"/>
	<path fill="#263238" d="M111.4,92.5c0.1,1-0.8,1.9-1.8,2c-1.1,0.1-2-0.7-2-1.7c-0.1-1,0.8-1.9,1.8-2
										C110.4,90.7,111.4,91.4,111.4,92.5z"/>
	<path fill="#263238" d="M113.3,85.5c-0.2,0.3-1.7-0.8-3.8-0.8c-2.1,0-3.6,1.1-3.8,0.9c-0.1-0.1,0.1-0.6,0.8-1.1
											c0.7-0.5,1.8-1,3.1-1c1.3,0,2.4,0.4,3.1,0.9C113.2,84.9,113.4,85.4,113.3,85.5z"/>
	<path fill="#263238" d="M112,78.8c-0.4,0.5-2,0-4,0c-1.9-0.1-3.6,0.4-4-0.1c-0.2-0.2,0.1-0.7,0.8-1.2
												c0.7-0.5,1.9-0.8,3.2-0.8c1.3,0,2.5,0.4,3.2,0.9C112,78.1,112.2,78.6,112,78.8z"/>
	<path fill="#B56760" d="M127.3,97.3c-0.1-1.1,1.1-3.9,2.2-4.1c3-0.6,8.3-0.7,8.8,6.9c0.6,10.3-9.9,8.8-9.9,8.5
							C128.4,108.4,127.5,101.2,127.3,97.3z"/>
	<path fill="#8A4A43" d="M131,104.7c0,0,0.2,0.1,0.5,0.2c0.3,0.1,0.8,0.2,1.3-0.1c1.1-0.5,1.9-2.3,1.8-4.1
								c0-0.9-0.3-1.8-0.7-2.5c-0.4-0.7-0.9-1.2-1.4-1.3c-0.6-0.1-0.9,0.3-1,0.6c-0.1,0.3,0,0.5-0.1,0.5c0,0-0.2-0.2-0.2-0.6
								c0-0.2,0.1-0.5,0.4-0.7c0.2-0.2,0.6-0.3,1-0.3c0.8,0,1.6,0.7,2,1.5c0.5,0.8,0.8,1.8,0.8,2.8c0.1,2.1-0.9,4.1-2.4,4.6
								c-0.7,0.2-1.3,0.1-1.7-0.2C131.1,104.9,131,104.7,131,104.7z"/>
	<path fill="#263238" d="M129.9,93.2l-2.6,2.7C116,85.1,93.8,58,95.1,59.6c0,0,7.8-3.2,16.2-1.8c8.4,1.4,24.4,5.7,24.2,15.6
	C135.2,83.4,129.9,93.2,129.9,93.2z"/>
	<path fill="#455A64" d="M144.9,91c0,0,0-0.2-0.2-0.6c-0.1-0.4-0.3-0.9-0.7-1.6c-0.7-1.4-2.1-3.2-4.3-4.9c-2.2-1.7-5.2-3.1-8.7-4.2
	c-3.5-1.1-7.4-2-11.2-3.6c-3.8-1.6-7.3-3.6-10.2-5.7c-2.9-2.1-5.3-4.3-7.2-6.3c-1.9-2-3.2-3.7-4.2-4.9c-0.4-0.6-0.8-1.1-1-1.4
	c-0.2-0.3-0.4-0.5-0.4-0.5c0,0,0.1,0.2,0.3,0.5c0.2,0.3,0.5,0.9,1,1.5c0.9,1.3,2.2,3.1,4.1,5.1c1.9,2,4.3,4.3,7.2,6.4
	c2.9,2.1,6.4,4.2,10.3,5.8c3.9,1.7,7.8,2.5,11.2,3.6c3.4,1.1,6.4,2.4,8.6,4c2.2,1.6,3.6,3.4,4.4,4.7C144.7,90.2,144.9,91,144.9,91z"
	/>
	<path fill="#455A64" d="M141.9,92.6c0,0,0.1-0.8-0.4-2.3c-0.5-1.4-1.7-3.3-3.9-4.9c-2.2-1.6-5.2-2.6-8.6-3.4
	c-3.4-0.8-7.1-1.7-10.7-3.4c-3.6-1.7-6.9-3.7-9.5-5.9c-2.7-2.2-4.9-4.4-6.5-6.4c-1.7-2-2.8-3.8-3.7-5c-0.4-0.6-0.6-1.1-0.9-1.4
	c-0.2-0.3-0.3-0.5-0.3-0.5c0,0,0.1,0.2,0.2,0.5c0.2,0.4,0.5,0.9,0.8,1.5c0.8,1.3,1.9,3.1,3.5,5.1c1.7,2.1,3.8,4.4,6.5,6.6
	c2.7,2.2,6,4.3,9.6,6c3.7,1.7,7.4,2.7,10.8,3.4c3.4,0.7,6.4,1.7,8.5,3.2c2.1,1.5,3.4,3.3,3.9,4.6C141.9,91.8,141.9,92.6,141.9,92.6z
	"/>
	<path fill="#455A64" d="M129.6,110.7c0-0.1,0.9-0.2,2.4-0.6c1.5-0.4,3.7-1.4,5.8-3.2c2.1-1.8,4-4.7,5.4-8.2
	c1.3-3.5,2.1-7.6,2.2-11.9c0-2.2-0.1-4.3-0.5-6.3c-0.4-2-1-3.9-1.7-5.6c-1.5-3.4-3.4-6.2-5.4-8.3c-3.8-4.2-7-5.9-6.9-6
	c0,0,0.2,0.1,0.6,0.3c0.4,0.2,0.9,0.5,1.6,1c1.3,0.9,3.2,2.3,5.2,4.4c2,2.1,4,4.9,5.6,8.4c0.7,1.8,1.4,3.7,1.8,5.7
	c0.4,2,0.6,4.2,0.5,6.4c-0.1,4.4-0.9,8.6-2.3,12.1c-1.4,3.6-3.4,6.5-5.6,8.4c-2.2,1.9-4.5,2.8-6,3.1c-0.8,0.2-1.4,0.2-1.8,0.3
	C129.8,110.7,129.6,110.8,129.6,110.7z"/>
	<path fill="#455A64" d="M65.1,155.5l0.3-0.3c11.4-12,32.3-16.1,32.3-16.1s1.3,7.9,13,8.8c11.7,0.9,20.4-11.1,20.4-11.1l15.7,2.2
	c0,0,7.9,0.9,12.8,3.8c11.1,6.5,16.9,28.9,16.9,28.9l-120.8,0.5L65.1,155.5z"/>
	<path fill="#263238" d="M54.1,37.3c0,0-0.3,0-0.8,0.1c-0.3,0-0.6,0-1,0.1c-0.4,0-0.9,0.1-1.4,0.2c-2.1,0.4-5.4,1.3-8.8,3.9
	c-1.7,1.3-3.3,3-4.7,5.2c-1.4,2.2-2.4,4.9-2.8,7.9c-0.2,1.5-0.2,3.1-0.2,4.8c0,1.6,0,3.3,0,5.1c0,3.5,0,7.2,0,11.2
	c0,15.7,0,34.8,0.1,56.5c0,5.4,0,11,0,16.8c0,1.4,0,2.9,0.1,4.3c0.1,1.4,0.4,2.9,0.8,4.3c0.9,2.8,2.4,5.4,4.4,7.6
	c1,1.1,2.2,2.1,3.4,2.9c1.3,0.8,2.6,1.6,4.1,2.1l1.1,0.4l1.1,0.3c0.7,0.2,1.5,0.3,2.3,0.4c0.8,0.1,1.5,0.1,2.3,0.2
	c0.8,0,1.6,0,2.4,0c6.3,0,12.8,0,19.4,0l0.2,0l0,0.2c0,9.8,0,20.2,0,30.9l-0.4-0.2c5.1-4.8,10.3-9.8,15.6-14.9
	c5.2-5.1,10.6-10.4,15.7-15.9l0.1-0.1h0.1c16.4,0,33.6,0,51,0c5.3,0,10.5,0,15.7,0c1.3,0,2.6,0,3.9,0c1.3,0,2.6,0,3.9-0.1
	c2.5-0.2,5-0.9,7.3-2.1c4.5-2.3,8-6.4,9.6-11.1c0.8-2.4,1.1-4.8,1.1-7.3c0-2.5,0-5,0-7.5c0-19.8,0-39,0-57.2c0-9.1,0-18,0-26.6
	c0-2.2,0-4.3-0.4-6.4c-0.4-2.1-1.2-4-2.2-5.8c-1-1.8-2.3-3.4-3.9-4.8c-1.5-1.4-3.2-2.5-5-3.3c-1.8-0.8-3.7-1.4-5.7-1.6
	c-1.9-0.2-3.9-0.2-5.9-0.2c-3.9,0-7.7,0-11.5,0c-7.5,0-14.7,0-21.6,0c-27.6,0-49.9-0.1-65.3-0.1c-7.7,0-13.7,0-17.8,0
	c-2,0-3.6,0-4.6,0C54.6,37.3,54.1,37.3,54.1,37.3s0.5,0,1.6,0c1,0,2.6,0,4.6,0c4.1,0,10.1,0,17.8,0c15.4,0,37.7,0,65.3-0.1
	c6.9,0,14.1,0,21.6,0c3.8,0,7.6,0,11.5,0c2,0,3.9-0.1,5.9,0.2c2,0.2,4,0.8,5.8,1.6c1.9,0.8,3.6,2,5.2,3.4c1.5,1.4,2.9,3,3.9,4.9
	c1,1.8,1.8,3.9,2.3,6c0.4,2.1,0.4,4.3,0.4,6.4c0,8.6,0,17.5,0,26.6c0,18.2,0,37.4,0,57.2c0,2.5,0,5,0,7.5c0,2.5-0.2,5.1-1.1,7.5
	c-1.6,4.8-5.2,9-9.9,11.4c-2.3,1.2-4.9,1.9-7.5,2.1c-1.3,0.1-2.6,0.1-3.9,0.1c-1.3,0-2.6,0-3.9,0c-5.2,0-10.4,0-15.7,0
	c-17.5,0-34.6,0-51,0l0.2-0.1c-5.1,5.6-10.5,10.8-15.7,16c-5.3,5.1-10.5,10.1-15.6,14.9l-0.4,0.4l0-0.6c0-10.7,0-21.1,0-30.9
	l0.2,0.2c-6.6,0-13.1,0-19.4,0c-0.8,0-1.6,0-2.4,0c-0.8-0.1-1.6,0-2.4-0.2c-0.8-0.1-1.6-0.2-2.3-0.4l-1.1-0.3l-1.1-0.4
	c-1.5-0.5-2.8-1.3-4.2-2.1c-1.3-0.9-2.5-1.9-3.5-3c-2.1-2.2-3.6-4.9-4.5-7.8c-0.4-1.4-0.7-2.9-0.8-4.4c-0.1-1.5-0.1-2.9-0.1-4.4
	c0-5.8,0-11.4,0-16.8c0-21.7,0-40.8,0.1-56.5c0-3.9,0-7.7,0-11.2c0-1.8,0-3.5,0-5.1c0-1.6,0-3.2,0.2-4.8c0.4-3.1,1.5-5.8,2.9-8
	c1.4-2.2,3.1-4,4.8-5.3c3.4-2.6,6.7-3.5,8.8-3.8c0.5-0.1,1-0.2,1.4-0.2c0.4,0,0.8,0,1,0C53.8,37.3,54.1,37.3,54.1,37.3z"/>
	<path fill="#263238" d="M309,466.1L184.2,466c-15,0-27.2-11.6-27.2-25.9l0.1-298.1c0-14.3,12.2-25.9,27.2-25.9l124.8,0.1
	c15,0,27.2,11.6,27.2,25.9l-0.1,298.1C336.2,454.5,324,466.1,309,466.1z"/>
	<path fill="#FFFFFF" d="M309,126.8l-24.2,0c-3.2,0-5.9,2.6-5.9,5.8l0,4.2c0,3.2-2.6,5.9-5.9,5.8l-47.2,0c-3.2,0-5.9-2.6-5.9-5.9
	l0-4.2c0-3.2-2.6-5.9-5.9-5.9l-8.5,0l-21.2,0c-10.5,0-19,8.1-19,18.1l-0.1,290.9c0,10,8.5,18.1,19,18.1l124.5,0.1
	c10.5,0,19-8.1,19-18.1l0.1-291C328,134.9,319.5,126.8,309,126.8z"/>
	<path fill="#263238" d="M242.5,199.3c3.5-0.3,6.5-3.4,6.6-6.9c0.1-3.5-2.8-6.8-6.2-7.2c1.7-2.6,1.5-6.2-0.4-8.6
	c-1.9-2.4-5.4-3.4-8.3-2.4c-0.7-3-3-5.5-5.9-6.4c-2.9-0.9-6.3-0.2-8.5,1.8c-3.8-2.2-9.2-1.3-12.1,2.1c-3,0-5.9,2.2-6.7,5
	c-0.9,2.9,0.4,6.2,2.9,7.9"/>
	<path fill="#C17560" d="M243.7,200.1c-4.2-15.1-19.3-24.5-34.7-21.6l-1.5,0.3c-16.3,4.1-22,20.3-17.4,36.5l11.4,58.9l0,0l33.7,26
	l8.7-21.7l-3.4-19.6c0,0,15.4-5.5,12.6-21.4C251.7,229.7,247.6,214.1,243.7,200.1z"/>
	<path fill="#7C4236" d="M240.6,258.8c0,0-10,2.5-22-2.1c0,0,6.9,10.8,22.5,6.4L240.6,258.8z"/>
	<path fill="#263238" d="M242.3,215.3c0.3,1.2-0.5,2.4-1.8,2.7c-1.2,0.3-2.5-0.4-2.7-1.6c-0.3-1.2,0.5-2.4,1.7-2.7
	C240.8,213.4,242,214.1,242.3,215.3z"/>
	<path fill="#263238" d="M241.8,208.5c-0.2,0.3-2.2-0.6-4.6-0.1c-2.4,0.4-4,2-4.3,1.8c-0.2-0.1,0-0.7,0.7-1.4
	c0.7-0.7,1.9-1.5,3.4-1.8c1.5-0.3,2.9,0,3.8,0.5C241.5,207.8,241.9,208.3,241.8,208.5z"/>
	<path fill="#263238" d="M220.2,220c0.3,1.2-0.5,2.4-1.8,2.7c-1.2,0.3-2.5-0.4-2.7-1.6c-0.3-1.2,0.5-2.4,1.7-2.7
	C218.7,218.1,219.9,218.8,220.2,220z"/>
	<path fill="#263238" d="M217.9,213.5c-0.2,0.3-2.2-0.6-4.6-0.1c-2.4,0.4-4,2-4.3,1.8c-0.2-0.1,0-0.7,0.7-1.4
	c0.7-0.7,1.9-1.5,3.4-1.8c1.5-0.3,2.9,0,3.8,0.5C217.6,212.9,218,213.3,217.9,213.5z"/>
	<path fill="#263238" d="M230.2,229.9c0-0.1,1.4-0.7,3.8-1.5c0.6-0.2,1.2-0.4,1.2-0.9c0.1-0.5-0.3-1.1-0.8-1.8
	c-0.9-1.4-1.8-2.9-2.7-4.4c-3.8-6.3-6.8-11.5-6.5-11.6c0.3-0.2,3.6,4.8,7.4,11.1c0.9,1.5,1.8,3,2.7,4.4c0.4,0.7,0.9,1.4,0.8,2.4
	c-0.1,0.5-0.5,0.9-0.9,1.1c-0.4,0.2-0.7,0.3-1,0.3C231.8,229.8,230.2,230.1,230.2,229.9z"/>
	<path fill="#263238" d="M217,205.1c-0.2,0.7-2.4,0.4-5,0.8c-2.6,0.3-4.7,1.2-5,0.6c-0.2-0.3,0.2-0.9,1-1.6c0.8-0.7,2.2-1.3,3.7-1.5
	c1.6-0.2,3,0,3.9,0.4C216.6,204.2,217.1,204.7,217,205.1z"/>
	<path fill="#263238" d="M240.4,199.8c-0.4,0.7-2.5,0.5-5,0.9c-2.4,0.4-4.4,1.2-5,0.7c-0.3-0.2,0-0.9,0.8-1.6
	c0.8-0.7,2.2-1.4,3.9-1.7c1.7-0.3,3.2,0,4.2,0.4C240.2,199,240.6,199.5,240.4,199.8z"/>
	<path fill="#C17560" d="M195.6,230.2c-0.6-2.4-3-4-5.4-3.3c-2.9,0.8-5.9,3.2-4.5,9.2c2.4,10.8,12.8,6.1,12.7,5.8
	C198.3,241.8,196.6,234.7,195.6,230.2z"/>
	<path fill="#7C4236" d="M195.1,238.5c-0.1,0-0.2,0.2-0.4,0.4c-0.3,0.2-0.8,0.4-1.4,0.3c-1.2-0.2-2.6-1.8-3.1-3.7
	c-0.2-1-0.3-2-0.1-2.8c0.2-0.9,0.5-1.5,1.1-1.8c0.5-0.3,1,0,1.2,0.3c0.2,0.3,0.2,0.5,0.3,0.5c0,0,0.2-0.2,0-0.7
	c-0.1-0.2-0.3-0.4-0.6-0.6c-0.3-0.2-0.7-0.2-1.1,0c-0.8,0.2-1.4,1.2-1.6,2.1c-0.2,0.9-0.3,2.1,0,3.2c0.6,2.2,2.1,3.9,3.8,4
	c0.8,0,1.4-0.3,1.7-0.7C195.1,238.8,195.1,238.5,195.1,238.5z"/>
	<path fill="#263238" d="M230.4,179.2c-0.1-0.3-0.3-0.5-0.5-0.7c-1.5-1.6-3.8-2.3-6-2.1c-1.4-0.4-2.8-0.7-4.1-0.9
	c-2-2.3-5.1-3.6-8.1-3.4c-3.5,0.3-6.6,2.6-8,5.8c-0.4,0.1-0.9,0.3-1.3,0.5c-2.5-1.2-5.6-1.3-8.2-0.1c-2.9,1.3-5.1,4-5.7,7.1
	c-2.8-0.2-5.6,1.4-6.9,3.9c-1.3,2.5-0.9,5.7,0.9,7.8c-1.7,1.5-3,3.7-2.7,6c0.4,2.1,2.7,3.8,4.7,3.2c0.6,5.3,2.3,11.3,3.6,16.6
	c0.9,3.8,6.2,5.1,7,7.6c4.2,12.9,7.1,4.8,3.6-22.8c0.2-0.3,0.5-0.5,0.7-0.9c0.5-0.6,0.5-1.3,0.9-2c0.5-0.8,1.6-0.8,2.5-0.9
	c3.2-0.3,6-3.1,6.2-6.3c1,1.1,2.9,0.6,4-0.4c1.1-1,1.6-2.5,2.4-3.7c0.7-1.3,1.9-2.5,3.4-2.6c0.8,0,1.7,0.3,2.5,0.1
	c1.4-0.4,1.8-2.2,1.7-3.7c0-1.2-0.1-2.6,0.5-3.6c0.8-0.6,1.6-1,2.6-1.3c0.6,0,1.1,0,1.7-0.1c0.3,0,0.5,0,0.8-0.1
	c0.3,0,0.7,0.1,1.1,0.2c5.2,1.4,11.3,10.6,11.3,10.6C239.9,186.7,235.5,182.1,230.4,179.2z"/>
	<path fill="#455A64" d="M181.1,197.9c0,0,0-0.1,0.1-0.2c0.1-0.1,0.1-0.3,0.3-0.5c0.3-0.4,0.7-1,1.5-1.6c0.7-0.5,1.8-1.1,3.1-1.3
	c1.3-0.2,2.9-0.1,4.3,0.7l-0.3,0.1c0.1-2.2,1.3-4.6,3.5-6.3c1-0.8,2.3-1.5,3.7-1.9c1.4-0.4,2.9-0.6,4.3-0.5c2.9,0.1,5.6,1,7.9,2
	l-0.3,0.2c0.5-2.7,2.1-4.8,3.9-6.1c1.8-1.3,3.8-1.7,5.4-1.7c1.6,0,2.9,0.4,3.7,0.7c0.4,0.2,0.7,0.3,0.9,0.4c0.2,0.1,0.3,0.2,0.3,0.2
	c0,0-0.4-0.2-1.2-0.5c-0.8-0.3-2-0.6-3.6-0.6c-1.6,0-3.5,0.5-5.2,1.8c-1.7,1.3-3.2,3.3-3.7,5.8l-0.1,0.3l-0.2-0.1
	c-2.3-1-4.9-1.9-7.8-2c-1.4-0.1-2.9,0.1-4.2,0.5c-1.3,0.4-2.5,1-3.5,1.8c-2,1.6-3.3,3.9-3.4,6l0,0.3l-0.3-0.2
	c-1.3-0.8-2.8-1-4.1-0.8c-1.3,0.2-2.3,0.7-3,1.2C181.6,196.9,181.2,198,181.1,197.9z"/>
	<path fill="#455A64" d="M223.4,183.1c0,0,0,0.2-0.1,0.5c-0.1,0.3-0.1,0.7-0.2,1.3c0,0.6,0,1.3-0.1,2.2c-0.1,0.8,0,1.9-0.6,2.9
	c-0.3,0.5-0.8,0.9-1.4,1.1c-0.6,0.2-1.2,0.2-1.9,0.2c-0.6,0-1.3,0.1-1.8,0.5c-0.5,0.4-1,0.9-1.3,1.5c-0.4,0.6-0.7,1.3-1.1,2
	c-0.4,0.7-0.7,1.4-1.3,2c-0.6,0.6-1.4,1-2.2,1.3c-0.4,0.1-0.9,0.2-1.3,0.2c-0.5,0-1-0.2-1.3-0.6l0.4-0.1c0,0.7-0.1,1.3-0.4,2
	c-0.2,0.6-0.6,1.2-1,1.8c-0.9,1.1-2.1,1.9-3.5,2.3c-0.6,0.2-1.1,0.3-1.7,0.4c-0.6,0.1-1.1,0-1.6,0.3c-0.5,0.2-0.8,0.6-1,1.1
	c-0.3,0.5-0.6,1-0.9,1.4c-1.3,1.8-3,3.3-5.1,3.7c-2.1,0.3-4-0.3-5.5-1.2c-1.5-1-2.6-2.3-3.2-3.7l0.2,0.1c-1.3,0.6-2.7,0.3-3.7-0.2
	c-1-0.5-1.6-1.4-1.9-2.1c-0.3-0.7-0.3-1.3-0.3-1.7c0-0.2,0-0.4,0.1-0.5c0-0.1,0-0.2,0-0.1c0.1,0-0.2,0.9,0.4,2.3
	c0.3,0.7,0.9,1.5,1.8,1.9c0.9,0.5,2.2,0.6,3.5,0.1l0.1-0.1l0.1,0.1c0.6,1.3,1.6,2.6,3.1,3.5c1.4,0.9,3.3,1.5,5.2,1.1
	c1.9-0.4,3.6-1.8,4.8-3.5c0.3-0.4,0.6-0.9,0.8-1.4c0.2-0.5,0.6-1.1,1.2-1.3c0.3-0.1,0.6-0.2,0.9-0.3l0.9-0.1
	c0.6-0.1,1.1-0.2,1.6-0.4c1.3-0.4,2.5-1.2,3.3-2.2c0.4-0.5,0.7-1.1,1-1.7c0.2-0.6,0.3-1.2,0.4-1.8l0-0.5l0.4,0.4
	c0.5,0.6,1.4,0.5,2.2,0.3c0.8-0.2,1.5-0.6,2.1-1.1c0.6-0.5,0.9-1.3,1.2-1.9c0.4-0.7,0.7-1.3,1.1-2c0.4-0.6,0.9-1.2,1.5-1.6
	c0.6-0.4,1.4-0.5,2-0.5c0.6,0,1.3,0,1.8-0.2c0.5-0.1,1-0.5,1.2-0.9c0.5-0.9,0.5-1.9,0.6-2.7c0-0.8,0.1-1.6,0.1-2.2
	c0.1-0.6,0.2-1,0.2-1.3C223.3,183.2,223.3,183,223.4,183.1z"/>
	<path fill="#7C4236" d="M223.4,235.6c-0.4,3,0.8,5.9,3.7,6.9c1,0.4,2.1,0.3,3.1-0.2c1.1-0.6,2.1-1.4,2.4-2.7
	c0.3-1.2,0.4-2.5,0.1-3.8C230,235.7,226,235.8,223.4,235.6z"/>
	<path fill="#263238" d="M232,240.9c0,0,0,0.1-0.1,0.2c-0.1,0.1-0.2,0.3-0.4,0.5c-0.4,0.4-1.2,0.9-2.2,1.1c-1.1,0.2-2.4,0-3.6-0.7
	c-1.2-0.8-2.2-2.2-2.4-3.8c-0.1-0.4-0.1-0.8-0.1-1.2c0-0.4,0.1-0.8,0.3-1.2c0.1-0.2,0.3-0.4,0.6-0.4c0.2-0.1,0.4-0.1,0.6-0.1
	c0.4,0,0.7,0,1.1,0c1.4,0.1,2.6,0.2,3.6,0.3c2.1,0.2,3.3,0.3,3.3,0.4c0,0.1-1.3,0.1-3.4,0c-1-0.1-2.3-0.2-3.6-0.2c-0.3,0-0.7,0-1,0
	c-0.4,0-0.6,0.1-0.7,0.3c-0.2,0.2-0.2,0.6-0.2,1c0,0.4,0,0.7,0.1,1.1c0.2,1.5,1.1,2.8,2.2,3.5c1.1,0.7,2.3,0.9,3.3,0.8
	c1-0.1,1.7-0.5,2.2-0.9C231.8,241.1,232,240.8,232,240.9z"/>
	<path fill="#FF725E" d="M292.4,206.3c0,0,12.7-1.6,31.7-16.7c19-15.1,29.4-36.7,31.5-36.4c2.1,0.3,11.9-3.1,26,37.1
	c14.1,40.3,6.3,48.6,2.8,48.2c-3.5-0.4-26.9-9.4-42-9.1c-15.1,0.3-35.1,6.3-35.1,6.3L292.4,206.3z"/>
	<polygon fill="#455A64" points="269.6,236.4 276.4,235 272.7,226.1 267,228.9 "/>
	<path fill="#263238" d="M270.4,225.8l2.5,7.5l1.6,3.8c2.1,5.2,8,7.8,13.3,5.9l27.5-7.7l-11.8-34.8l-27.3,11.5
	C270.7,214.3,268.2,220.5,270.4,225.8z"/>
	<path fill="#263238" d="M280.2,237.4l9.2,16.3l4.2-1.4l28.7,21.4l7.1-15.5c0,0-16.7-6.4-20-12.1c-3.3-5.7,0.2-7.2,0.2-7.2l-8.1-8.5
	L280.2,237.4z"/>
	<path fill="#263238" d="M380.1,191c7.5,21.8,9.7,40.8,4.9,42.5c-4.8,1.6-14.7-14.7-22.2-36.5c-7.5-21.8-9.7-40.8-4.9-42.5
	C362.7,152.8,372.6,169.2,380.1,191z"/>
	<path fill="#FAFAFA" d="M361.3,184.5c0,0,11.4-5.7,15.9,9.5c4.5,15.1-7,16.5-7,16.5C366.2,202.8,363.2,194.2,361.3,184.5z"/>
	<path fill="#263238" d="M351.4,166.1c-0.1,0,0,1,0.2,2.8c0.2,1.8,0.4,4.4,0.8,7.7c0.3,1.6,0.6,3.4,1,5.2c0.2,0.9,0.4,1.9,0.6,2.9
	c0.1,0.5,0.2,1,0.3,1.5c0.1,0.5,0.3,1,0.4,1.5c0.6,2.1,1.2,4.3,1.8,6.5c0.2,0.6,0.3,1.1,0.5,1.7c0.2,0.6,0.4,1.1,0.6,1.7
	c0.4,1.1,0.9,2.3,1.3,3.5c0.4,1.2,0.9,2.3,1.3,3.5c0.2,0.6,0.4,1.1,0.7,1.7c0.3,0.5,0.5,1.1,0.8,1.6c1,2.1,2,4.2,2.9,6.1
	c0.2,0.5,0.4,1,0.7,1.4c0.3,0.5,0.5,0.9,0.8,1.4c0.5,0.9,1,1.7,1.5,2.6c1,1.7,1.9,3.2,2.7,4.6c1.8,2.7,3.4,4.8,4.4,6.3
	c1.1,1.5,1.7,2.3,1.7,2.2c0.1,0-0.5-0.9-1.4-2.4c-1-1.6-2.4-3.8-4.2-6.5c-0.8-1.4-1.6-3-2.6-4.6c-0.5-0.8-0.9-1.7-1.4-2.6
	c-0.2-0.4-0.5-0.9-0.8-1.3c-0.2-0.5-0.4-1-0.7-1.4c-0.9-1.9-1.8-4-2.8-6.1c-0.2-0.5-0.5-1.1-0.7-1.6c-0.3-0.5-0.4-1.1-0.7-1.7
	c-0.4-1.1-0.8-2.3-1.3-3.4c-0.4-1.2-0.9-2.3-1.3-3.4c-0.2-0.6-0.4-1.1-0.6-1.7c-0.2-0.6-0.3-1.1-0.5-1.7c-0.7-2.2-1.3-4.4-1.9-6.5
	c-0.1-0.5-0.3-1-0.4-1.5c-0.1-0.5-0.2-1-0.3-1.5c-0.2-1-0.4-2-0.6-2.9c-0.4-1.9-0.8-3.6-1.1-5.2c-0.5-3.2-0.8-5.8-1.1-7.6
	C351.7,167,351.5,166,351.4,166.1z"/>
	<path fill="#455A64" d="M315.2,235.4c0,0-0.4,0.2-1.2,0.4c-0.9,0.2-2,0.5-3.4,0.9c-2.9,0.7-6.8,1.8-11.2,3c-4.4,1.2-8.3,2.3-11.2,3
	c-1.4,0.4-2.6,0.6-3.4,0.8c-0.8,0.2-1.3,0.2-1.3,0.2c0,0,0.4-0.2,1.2-0.4c0.9-0.3,2-0.6,3.4-1c3-0.8,6.9-1.9,11.2-3.2
	c4.4-1.2,8.4-2.2,11.3-2.9c1.5-0.3,2.6-0.6,3.4-0.7C314.7,235.4,315.2,235.3,315.2,235.4z"/>
	<path fill="#455A64" d="M299,229.7c0,0.1-1,0.5-2.7,1.1c-1.7,0.6-4,1.4-6.7,2.2c-2.6,0.8-5,1.4-6.8,1.8c-1.8,0.4-2.9,0.6-2.9,0.5
	c0-0.1,1.1-0.4,2.8-0.9c1.7-0.5,4.1-1.2,6.7-1.9c2.6-0.8,5-1.5,6.7-2.1C298,229.9,299,229.6,299,229.7z"/>
	<path fill="#455A64" d="M294.7,221.7c0,0.1-3.8,1.4-8.5,2.8c-4.7,1.4-8.6,2.5-8.6,2.3c0-0.1,3.8-1.4,8.5-2.8
	C290.8,222.6,294.6,221.6,294.7,221.7z"/>
	<path fill="#455A64" d="M290.4,214.1c0.1,0.1-3.2,1.7-7.2,3.4c-4,1.8-7.4,3.1-7.4,3c-0.1-0.1,3.2-1.7,7.2-3.4
	C287,215.3,290.4,214,290.4,214.1z"/>
	<path fill="#FF725E" d="M259.5,300.2L242.8,272l-43.1-1.8l0,3.9c0,0-11.8,11.9-15.7,28.1c-2.9,12.3,9.3,59.2,12.7,75.4
	c4.2,20,10,45.3,10,45.3c-0.9,4.5-6.6,8.1-6.2,14.1l95.9-1.1l-4.9-19.4L259.5,300.2z"/>
	<path fill="#FFFFFF" d="M292.8,424.1c0,0.1-19.1,0.3-42.6,0.3c-23.5,0-42.6-0.1-42.6-0.3s19.1-0.3,42.6-0.3
	C273.7,423.8,292.8,423.9,292.8,424.1z"/>
	<path fill="#FFFFFF" d="M286.1,400c0,0.1-18.9,0.3-42.2,0.3c-23.3,0-42.2-0.1-42.2-0.3s18.9-0.3,42.2-0.3
	C267.2,399.8,286.1,399.9,286.1,400z"/>
	<path fill="#FFFFFF" d="M279.6,373.9c0,0.1-18.5,0.3-41.3,0.3c-22.8,0-41.3-0.1-41.3-0.3s18.5-0.3,41.3-0.3
	C261.1,373.6,279.6,373.7,279.6,373.9z"/>
	<path fill="#FFFFFF" d="M275.1,347.6c0,0.1-19.1,0.3-42.6,0.3c-23.5,0-42.6-0.1-42.6-0.3c0-0.1,19.1-0.3,42.6-0.3
	C256,347.3,275.1,347.4,275.1,347.6z"/>
	<path fill="#FFFFFF" d="M265,314.9c0,0.1-18,0.3-40.3,0.3c-22.2,0-40.3-0.1-40.3-0.3c0-0.1,18-0.3,40.3-0.3
	C247,314.7,265,314.8,265,314.9z"/>
	<path fill="#FFFFFF" d="M251.3,285c0,0.1-13.3,0.3-29.7,0.3c-16.4,0-29.7-0.1-29.7-0.3s13.3-0.3,29.7-0.3
	C238,284.8,251.3,284.9,251.3,285z"/>
	<path opacity="0.3" d="M196.3,317.5c0,0,6.1,10.8,15.7,18.8c9.6,8,38.9,22.3,38.9,22.3l2.4-5.1l21.9,5.1l-4.1-13.5L196.3,317.5z"/>
	<path fill="#C17560" d="M299.1,282l-7.6,41.4l-65.4-31.1l-10.5,36.9c25.7,12.6,77.7,33.5,84.4,32.9c9.5-0.9,16.1-6.5,19.1-20.5
	c1.8-8.6,1-66.5,1-66.5L299.1,282z"/>
	<path fill="#FF725E" d="M230.4,286.8c0,0-24.4-15.1-35.1,3.9c-7.6,18.6,0.8,33.4,19.6,42.6c9.1,4.4,21.4,9.9,33.9,15.1l18.2-40.4
	L230.4,286.8z"/>
	<path fill="#263238" d="M230.4,286.8c0,0,0.2,0.1,0.7,0.4c0.5,0.3,1.1,0.6,1.9,1.1c1.7,1,4.2,2.4,7.4,4.2c6.4,3.7,15.6,9,26.7,15.4
	l0.2,0.1l-0.1,0.2c-5.2,11.5-11.4,25.3-18.1,40.4l-0.1,0.2l-0.2-0.1c-6.4-2.7-13-5.5-19.7-8.5c-3-1.3-5.9-2.7-8.8-4
	c-2.9-1.4-5.7-2.7-8.5-4.2c-1.3-0.8-2.7-1.6-3.9-2.4c-1.2-0.9-2.5-1.7-3.7-2.7c-2.4-1.9-4.4-4.1-6.2-6.3c-0.4-0.6-0.8-1.2-1.2-1.8
	c-0.4-0.6-0.7-1.2-1.1-1.8c-0.8-1.2-1.2-2.5-1.8-3.8c-0.2-0.7-0.4-1.3-0.6-2l-0.3-1c-0.1-0.3-0.1-0.7-0.2-1c-0.1-0.7-0.2-1.3-0.3-2
	c-0.1-0.7-0.1-1.3-0.1-2c-0.1-1.3,0-2.6,0.1-3.9c0.1-1.3,0.4-2.5,0.5-3.7c0.3-1.2,0.6-2.4,0.9-3.5c0.4-1.1,0.8-2.2,1.2-3.3l0,0l0,0
	c1.5-2.7,3.5-4.9,5.8-6.5c2.3-1.6,4.8-2.5,7.3-2.9c4.9-0.7,9.1,0.2,12.4,1.2c3.3,1,5.8,2.2,7.4,3c0.8,0.4,1.4,0.8,1.8,1
	C230.2,286.7,230.4,286.8,230.4,286.8s-0.2-0.1-0.6-0.3c-0.4-0.2-1-0.5-1.8-0.9c-1.6-0.8-4.1-1.9-7.4-2.9c-3.3-0.9-7.5-1.8-12.3-1.1
	c-2.4,0.4-4.9,1.3-7.1,2.8c-2.2,1.6-4.2,3.8-5.6,6.4l0,0c-0.4,1.1-0.8,2.2-1.2,3.3c-0.3,1.1-0.6,2.3-0.9,3.5
	c-0.2,1.2-0.4,2.4-0.5,3.7c0,1.3-0.2,2.5-0.1,3.8c0,0.6,0.1,1.3,0.1,2c0.1,0.6,0.2,1.3,0.3,2c0.1,0.3,0.1,0.7,0.2,1l0.3,1
	c0.2,0.6,0.4,1.3,0.6,1.9c0.5,1.2,1,2.6,1.8,3.7c0.4,0.6,0.6,1.3,1.1,1.8c0.4,0.6,0.8,1.2,1.2,1.7c1.8,2.2,3.8,4.4,6.1,6.2
	c1.1,1,2.4,1.8,3.6,2.7c1.3,0.8,2.6,1.6,3.9,2.4c2.7,1.5,5.5,2.8,8.4,4.2c2.9,1.3,5.8,2.7,8.8,4c6.7,3,13.3,5.8,19.7,8.5l-0.3,0.1
	c6.8-15,13-28.8,18.2-40.3l0.1,0.3c-11.1-6.5-20.3-11.9-26.7-15.6c-3.2-1.9-5.6-3.3-7.3-4.3c-0.8-0.5-1.5-0.9-1.9-1.1
	C230.6,286.9,230.4,286.8,230.4,286.8z"/>
	<path fill="#C17560" d="M298.2,289.1l1.5-15.4c0,0-5.9-11.9-5.8-13.1c0.1-1.2,0.5-7.7,0.5-7.7l14.8-13.3c0,0,4.8,0,4.9,4.7
	c0,0,4.6-1,4.7,4.5c0,0,5,0.2,5.1,4.2l0,0c0,0,3-0.4,2.9,3.8c-0.1,3-1.4,14.6-1.4,14.6l-6.2,10.7l-0.5,10.7L298.2,289.1z"/>
	<path fill="#7C4236" d="M299.7,338.6c-0.2,0.1-1.3-3.7-3.5-7.9c-2.2-4.2-4.8-7.1-4.7-7.2c0,0,0.7,0.6,1.7,1.9c1,1.2,2.3,3,3.4,5.1
	c1.1,2.1,1.9,4.2,2.4,5.7C299.6,337.6,299.8,338.6,299.7,338.6z"/>
	<path fill="#FFFFFF" d="M215.6,281.7c0,0-0.2,0.5-0.6,1.4c-0.4,0.9-1.1,2.2-2,3.7c-1.7,3.1-4.1,7.4-6.8,12.1
	c-2.7,4.7-5.1,8.9-6.9,12c-0.9,1.5-1.6,2.7-2.1,3.6c-0.5,0.9-0.8,1.3-0.8,1.3c0,0,0.2-0.5,0.6-1.4c0.4-0.9,1.1-2.2,2-3.7
	c1.7-3.1,4.1-7.4,6.8-12.1c2.7-4.7,5.1-8.9,6.9-12c0.9-1.5,1.6-2.7,2.1-3.6C215.3,282.1,215.6,281.7,215.6,281.7z"/>
	<path fill="#FFFFFF" d="M235.6,290.4c0,0,0,0.2-0.2,0.5c-0.1,0.3-0.3,0.8-0.5,1.3c-0.5,1.1-1.2,2.6-2.1,4.5c-1.8,3.8-4.5,9-7.6,14.7
	c-3.1,5.7-6,10.8-8.2,14.4c-1.1,1.8-2,3.3-2.6,4.3c-0.3,0.5-0.5,0.8-0.7,1.1c-0.2,0.3-0.3,0.4-0.3,0.4c0,0,0.1-0.2,0.2-0.4
	c0.2-0.3,0.4-0.7,0.7-1.2c0.6-1.1,1.5-2.6,2.5-4.4c2.1-3.7,5-8.8,8.1-14.5c3.1-5.7,5.8-10.9,7.7-14.7c0.9-1.8,1.7-3.3,2.3-4.5
	c0.3-0.5,0.5-0.9,0.6-1.2C235.5,290.5,235.5,290.4,235.6,290.4z"/>
	<path fill="#FFFFFF" d="M257.9,302.9c0,0-0.2,0.6-0.6,1.7c-0.4,1.1-1.1,2.6-1.9,4.4c-1.6,3.7-4.1,8.7-7.1,14.1
	c-3,5.4-6,10.1-8.3,13.5c-1.1,1.7-2.1,3-2.8,3.9c-0.7,0.9-1.1,1.4-1.1,1.4c0,0,0.3-0.6,0.9-1.5c0.7-1,1.6-2.4,2.6-4
	c2.2-3.4,5.1-8.1,8.1-13.5c3-5.4,5.5-10.4,7.2-14c0.8-1.8,1.5-3.2,2-4.3C257.5,303.4,257.8,302.9,257.9,302.9z"/>
	<polygon fill="#263238" points="199.7,455.6 201.8,437.1 293.3,436.1 295.6,455.6 "/>
	<path fill="#455A64" d="M313,454c0,0.1-28.2,0.3-62.9,0.3c-34.8,0-62.9-0.1-62.9-0.3c0-0.1,28.2-0.3,62.9-0.3
	C284.8,453.7,313,453.8,313,454z"/>
	<path fill="#455A64" d="M262,136.6h-34c-1.1,0-2-0.9-2-2V133c0-1.1,0.9-2,2-2h34c1.1,0,2,0.9,2,2v1.5
	C264.1,135.7,263.2,136.6,262,136.6z"/>
	<path fill="#455A64" d="M273.3,133.8c0,1.5-1.2,2.8-2.8,2.8s-2.8-1.2-2.8-2.8c0-1.5,1.2-2.8,2.8-2.8S273.3,132.3,273.3,133.8z"/>
	<path fill="#263238" d="M160.3,220.5h-2.3c-3.4,0-6.2-2.8-6.2-6.2v-34c0-3.4,2.8-6.2,6.2-6.2h2.3V220.5z"/>
	<path fill="#263238" d="M159.8,287.9h-2.3c-3.4,0-6.2-2.8-6.2-6.2v-34c0-3.4,2.8-6.2,6.2-6.2h2.3V287.9z"/>
	<path fill="#FF725E" d="M157.7,159.8c0,50.1,0,100.3,0,150.4"/>
	<path fill="#455A64" d="M157.7,310.3c-0.1,0-0.3-33.7-0.3-75.2c0-41.6,0.1-75.2,0.3-75.2s0.3,33.7,0.3,75.2
	C157.9,276.6,157.8,310.3,157.7,310.3z"/>
	<path fill="#FFFFFF" d="M126.4,364.3H30c-6.3,0-11.4-5.1-11.4-11.4v-74c0-6.3,5.1-11.4,11.4-11.4h96.4c6.3,0,11.4,5.1,11.4,11.4v74
	C137.8,359.2,132.7,364.3,126.4,364.3z"/>
	<path fill="#FF725E" d="M83,361.3c1.2,3,24.9,25.2,24.9,25.2v-25.2H83z"/>
	<path fill="#263238" d="M99.6,289c-1.1-3.8-3.9-7-7.4-8.8c-3.9-2-8.5-2.1-12.7-1.2c-4.2,1-8.1,3-11.8,5.3c-2.1,1.3-4.1,2.7-5.6,4.6
	c-2.7,3.6-5.2,9.3-5.4,13.8c-0.1,3.6,1.5,12.5,3.1,15.7c0.6,1.1,1.9,2.2,3.5,3c1.7,3.2,4,6,6.7,8.4c0.8-2.4,1.5-4.9,2.3-7.3
	L99.6,289z"/>
	<path fill="#263238" d="M97.4,284.7l-7.1-1.1c4.1,9.1,5.8,30.1,8.3,39.7c2.5-3.9,8.2-15.5,7.8-20.1
	C105.9,298.7,105.8,283.6,97.4,284.7z"/>
	<path fill="#FFBF9D" d="M64.4,300.9c0.2-5.4,3.6-9.9,8.8-11.4l16.1-4.6c7-1,11.9,7.6,12.6,14.6c0.7,7.8,1.3,16.1,0.5,22
	c-1.5,11.8-10.5,13.6-10.5,13.6c0,0,0.2,5.6,0.2,9l-2.6,15.4l-21.3-18.2l-3.9-40.3C64.3,300.9,64.4,301.2,64.4,300.9z"/>
	<path fill="#263238" d="M98.4,309.3c0.1,0.8-0.6,1.5-1.4,1.6c-0.8,0.1-1.5-0.5-1.6-1.3c-0.1-0.8,0.6-1.5,1.4-1.6
	C97.6,307.9,98.3,308.5,98.4,309.3z"/>
	<path fill="#263238" d="M100.3,304.2c-0.2,0.2-1.3-0.6-3-0.6c-1.6,0-2.8,0.9-3,0.7c-0.1-0.1,0.1-0.4,0.6-0.8
	c0.5-0.4,1.4-0.8,2.4-0.8c1,0,1.9,0.3,2.4,0.7C100.2,303.7,100.4,304.1,100.3,304.2z"/>
	<path fill="#263238" d="M83.7,309.3c0.1,0.8-0.6,1.5-1.4,1.6c-0.8,0.1-1.5-0.5-1.6-1.3c-0.1-0.8,0.6-1.5,1.4-1.6
	C83,307.9,83.7,308.5,83.7,309.3z"/>
	<path fill="#263238" d="M84.9,304.6c-0.2,0.2-1.4-0.6-3-0.6c-1.6,0-2.8,0.9-3,0.7c-0.1-0.1,0.1-0.4,0.6-0.8c0.5-0.4,1.4-0.8,2.4-0.8
	c1,0,1.9,0.3,2.4,0.7C84.8,304.2,84.9,304.5,84.9,304.6z"/>
	<path fill="#263238" d="M90.3,317.2c0-0.1,1-0.3,2.6-0.6c0.4-0.1,0.8-0.1,0.9-0.4c0.1-0.3-0.1-0.7-0.3-1.2c-0.4-1-0.9-2-1.3-3.1
	c-1.8-4.4-3.2-8.1-3-8.2c0.2-0.1,1.8,3.5,3.7,7.9c0.4,1.1,0.9,2.1,1.3,3.1c0.2,0.5,0.5,1,0.3,1.6c-0.1,0.3-0.4,0.5-0.7,0.6
	c-0.3,0.1-0.5,0.1-0.7,0.1C91.3,317.3,90.3,317.3,90.3,317.2z"/>
	<path fill="#FF9A6C" d="M76.2,331.3c0,0,4.1,8,15.8,6.5l-0.1-2.8C92,335.1,84.2,335.8,76.2,331.3z"/>
	<path fill="#263238" d="M84.2,298.8c-0.1,0.4-1.8,0.3-3.7,0.6c-1.9,0.3-3.4,0.9-3.7,0.5c-0.1-0.2,0.1-0.6,0.7-1.1
	c0.6-0.4,1.6-0.9,2.7-1c1.1-0.2,2.2,0,2.9,0.2C83.9,298.2,84.2,298.6,84.2,298.8z"/>
	<path fill="#263238" d="M99.6,299.2c-0.3,0.4-1.4,0-2.7,0.1c-1.3,0-2.5,0.3-2.7-0.1c-0.1-0.2,0-0.6,0.5-0.9c0.5-0.4,1.3-0.7,2.2-0.7
	c0.9,0,1.7,0.3,2.2,0.7C99.6,298.7,99.7,299.1,99.6,299.2z"/>
	<path fill="#263238" d="M98.4,288.9c-0.8-1.7-2.7-2.8-4.7-2.8c-1.9,0-3.8,0.7-5.4,1.7c-6.9,4.2-10.2,14.1-17,18.5
	c-1.7,1.1-3.9,0.2-5.3,1.6c-1.4,1.4-2.3,3.6-1.4,5.4c-1-1.2-1.9-2.5-2.5-4c-0.6-1.5-0.7-3.2,0.1-4.6c0.6-1.1,1.6-1.9,1.9-3
	c0.2-1-0.2-2.1-0.2-3.1c0-1.1,0.5-2.1,1-3c2.6-4.9,6.2-9.3,10.9-12.1c3.1-1.9,6.6-3,10.2-3c3.6,0,7.2,1.2,9.9,3.6
	C97.5,285.5,99.2,286.9,98.4,288.9"/>
	<path fill="#FFBF9D" d="M66.2,309.4c-0.1-0.3-6.3-2.4-6.2,4.2c0.1,6.3,6.5,4.9,6.5,4.7C66.5,318.1,66.2,309.4,66.2,309.4z"/>
	<path fill="#FF9A6C" d="M64.5,315.9c0,0-0.1,0.1-0.3,0.2c-0.2,0.1-0.5,0.2-0.8,0c-0.7-0.2-1.3-1.3-1.3-2.4c0-0.6,0.1-1.1,0.3-1.6
	c0.2-0.5,0.5-0.8,0.8-0.9c0.3-0.1,0.6,0.1,0.7,0.3c0.1,0.2,0.1,0.3,0.1,0.3c0,0,0.1-0.1,0.1-0.4c0-0.1-0.1-0.3-0.3-0.4
	c-0.2-0.1-0.4-0.2-0.6-0.1c-0.5,0-0.9,0.5-1.1,1c-0.2,0.5-0.4,1.1-0.3,1.8c0.1,1.3,0.7,2.5,1.7,2.7c0.4,0.1,0.8,0,1-0.2
	C64.5,316.1,64.5,315.9,64.5,315.9z"/>
	<path fill="#FFFFFF" d="M63.6,306.2c0,0,0.1-0.1,0.4-0.2c0.2-0.2,0.6-0.4,1-0.7c0.9-0.7,2.1-1.7,3.3-3.2c1.3-1.5,2.6-3.4,4-5.6
	c1.4-2.1,3-4.5,5-6.7c1-1.1,2.1-2,3.3-2.8c1.2-0.8,2.4-1.3,3.6-1.8c2.4-0.9,4.8-1.1,6.7-1c1.9,0.1,3.5,0.4,4.5,0.8
	c0.5,0.1,0.9,0.3,1.2,0.4c0.3,0.1,0.4,0.1,0.4,0.1c0,0-0.1-0.1-0.4-0.2c-0.3-0.1-0.7-0.3-1.2-0.5c-1-0.4-2.6-0.8-4.5-0.8
	c-2-0.1-4.3,0.1-6.8,1c-1.2,0.4-2.5,1-3.7,1.8c-1.2,0.8-2.3,1.7-3.4,2.8c-2.1,2.2-3.6,4.6-5.1,6.7c-1.4,2.2-2.7,4.1-4,5.6
	c-1.2,1.5-2.4,2.6-3.2,3.3c-0.4,0.3-0.8,0.6-1,0.7C63.7,306.1,63.6,306.2,63.6,306.2z"/>
	<path fill="#263238" d="M65.3,308c0,1.7-0.1,3.6,0.8,5.1c0.8,1.5,2.9,2.5,4.4,1.6c1.2-0.7,1.5-2.3,1.7-3.7c0.5-4.1,0.6-8.1,1.2-12.2
	L65.3,308z"/>
	<path fill="#455A64" d="M96.8,285.9c0,0-0.6-0.1-1.6-0.1c-1,0-2.5,0.2-4.2,0.9c-0.8,0.4-1.7,0.8-2.6,1.4c-0.9,0.6-1.8,1.3-2.7,2.1
	c-1.8,1.6-3.6,3.6-5.1,5.9c-0.8,1.2-1.5,2.3-2.2,3.4c-0.7,1.1-1.6,2.1-2.5,2.9c-1.8,1.7-3.7,2.8-5.3,3.7c-1.6,0.9-2.9,1.5-3.9,2
	c-0.4,0.2-0.8,0.4-1.1,0.5c-0.2,0.1-0.4,0.2-0.4,0.1c0,0,0.1-0.1,0.4-0.2c0.3-0.1,0.6-0.3,1-0.6c0.9-0.5,2.2-1.2,3.8-2.1
	c1.6-0.9,3.4-2.1,5.2-3.8c0.9-0.8,1.7-1.8,2.4-2.9c0.7-1.1,1.4-2.3,2.2-3.4c1.6-2.3,3.4-4.3,5.2-5.9c0.9-0.8,1.8-1.5,2.7-2.1
	c0.9-0.6,1.8-1.1,2.7-1.4c1.7-0.7,3.2-0.8,4.3-0.8c0.5,0,0.9,0.1,1.2,0.1C96.6,285.9,96.8,285.9,96.8,285.9z"/>
	<path fill="#FFFFFF" d="M65,304c0,0-0.2,0.2-0.5,0.4c-0.4,0.3-1,0.6-1.6,1c-0.2,0.1-0.3,0.2-0.5,0.3c-0.2,0.1-0.4,0.2-0.7,0.2
	c-0.1,0-0.3,0-0.4-0.1c-0.1-0.1-0.2-0.2-0.2-0.4c0-0.3,0.1-0.6,0.3-0.8c0.5-0.9,1.1-2,1.8-3l0.3,0.2c-0.6,0.5-1.3,0.8-2,1.1
	c-0.7,0.2-1.5,0.4-2.3,0.3c-0.2,0-0.4,0-0.6-0.1c-0.2-0.1-0.4-0.2-0.5-0.4c-0.1-0.2,0-0.5,0.1-0.6c0.1-0.2,0.2-0.3,0.3-0.4
	c0.9-0.9,1.6-1.9,2.1-2.8c1-1.7,1.2-3,1.3-3c0,0,0,0.3-0.2,0.9c-0.2,0.5-0.4,1.3-0.9,2.2c-0.5,0.9-1.1,1.9-2.1,2.9
	c-0.2,0.2-0.5,0.5-0.4,0.7c0.1,0.2,0.4,0.3,0.8,0.3c0.7,0,1.4-0.1,2.1-0.3c0.7-0.2,1.4-0.6,1.9-1l0.7-0.6l-0.5,0.8
	c-0.6,1.1-1.3,2.1-1.8,3c-0.1,0.2-0.3,0.4-0.3,0.6c0,0.2,0.2,0.3,0.4,0.3c0.4,0,0.8-0.3,1.1-0.5c0.6-0.4,1.2-0.7,1.6-0.9
	C64.8,304.1,65,304,65,304z"/>
	<path fill="#FF9A6C" d="M84.2,320.4c0.2-1,1.2-1.7,2.1-1.7c0.7,0.1,1.4,0.5,1.7,1.2c0.3,0.6,0.4,1.4,0.2,2.1l0,0.2
	c-0.6,0.8-1.8,1-2.7,0.7C84.6,322.4,84,321.4,84.2,320.4z"/>
	<path fill="#263238" d="M89.4,322.2c0-0.2-1.6-0.1-2.9-1.4c-1.3-1.3-1.2-3.1-1.5-3.1c-0.1,0-0.3,0.4-0.3,1.2c0,0.7,0.3,1.8,1.1,2.6
	c0.8,0.8,1.8,1.1,2.4,1.1C89,322.5,89.4,322.3,89.4,322.2z"/>
	<path fill="#FF725E" d="M115.6,352.6l-0.2-0.2c-8.2-8.7-23.3-11.6-23.3-11.6s-0.9,5.7-9.4,6.3c-8.5,0.6-14.7-8-14.7-8l-11.3,1.6
	c0,0-5.7,0.7-9.2,2.7c-8,4.7-12.2,20.8-12.2,20.8l87,0.4L115.6,352.6z"/>
	<path fill="#263238" d="M123.5,267.5c0,0,0.2,0,0.6,0c0.4,0,1,0,1.8,0.2c1.5,0.3,3.9,0.9,6.4,2.8c1.2,0.9,2.4,2.2,3.4,3.8
	c1,1.6,1.8,3.6,2.1,5.8c0.1,1.1,0.1,2.3,0.1,3.4c0,1.2,0,2.4,0,3.7c0,2.5,0,5.2,0,8c0,11.3,0,25,0.1,40.7c0,3.9,0,7.9,0,12.1
	c0,1,0,2.1-0.1,3.1c-0.1,1.1-0.3,2.1-0.6,3.2c-0.6,2.1-1.8,4-3.3,5.6c-1.5,1.6-3.4,2.9-5.5,3.7l-0.8,0.3l-0.8,0.2
	c-0.5,0.2-1.1,0.2-1.7,0.3c-1.1,0.1-2.3,0.1-3.4,0.1c-4.6,0-9.2,0-14,0l0.2-0.2c0,7,0,14.5,0,22.2l0,0.6l-0.4-0.4
	c-3.7-3.5-7.4-7.1-11.2-10.7c-3.8-3.7-7.6-7.5-11.3-11.5l0.2,0.1c-11.8,0-24.2,0-36.7,0c-3.8,0-7.6,0-11.3,0l-2.8,0
	c-0.9,0-1.9,0-2.8-0.1c-1.9-0.2-3.7-0.7-5.4-1.5c-3.4-1.7-6-4.7-7.1-8.2c-0.6-1.7-0.8-3.6-0.8-5.4c0-1.8,0-3.6,0-5.4
	c0-14.3,0-28.1,0-41.2c0-6.6,0-13,0-19.2c0-1.5,0-3.1,0.3-4.7c0.3-1.5,0.9-3,1.6-4.3c0.7-1.3,1.7-2.5,2.9-3.5c1.1-1,2.4-1.9,3.7-2.5
	c1.4-0.6,2.8-1,4.2-1.2c1.5-0.2,2.9-0.1,4.3-0.1c2.8,0,5.6,0,8.3,0c5.4,0,10.6,0,15.6,0c19.8,0,35.9,0.1,47,0.1c5.5,0,9.8,0,12.8,0
	c1.5,0,2.6,0,3.3,0C123.2,267.5,123.5,267.5,123.5,267.5s-0.4,0-1.1,0c-0.8,0-1.9,0-3.3,0c-2.9,0-7.2,0-12.8,0
	c-11.1,0-27.2,0-47,0.1c-5,0-10.2,0-15.6,0c-2.7,0-5.5,0-8.3,0c-1.4,0-2.8,0-4.2,0.1c-1.4,0.1-2.8,0.6-4.1,1.2
	c-1.3,0.6-2.5,1.4-3.6,2.4c-1.1,1-2,2.1-2.8,3.4c-0.7,1.3-1.3,2.7-1.6,4.2c-0.3,1.5-0.3,3-0.3,4.6c0,6.2,0,12.6,0,19.2
	c0,13.1,0,26.9,0,41.2c0,1.8,0,3.6,0,5.4c0,1.8,0.2,3.6,0.8,5.3c1.1,3.4,3.7,6.3,6.9,7.9c1.6,0.8,3.4,1.3,5.2,1.5
	c0.9,0.1,1.8,0.1,2.8,0.1l2.8,0c3.7,0,7.5,0,11.3,0c12.6,0,24.9,0,36.7,0h0.1l0.1,0.1c3.7,4,7.5,7.8,11.3,11.5
	c3.8,3.7,7.5,7.3,11.2,10.7l-0.4,0.2c0-7.7,0-15.2,0-22.2l0-0.2l0.2,0c4.8,0,9.4,0,14,0c1.1,0,2.3,0,3.4-0.1
	c0.5-0.1,1.1-0.1,1.6-0.3l0.8-0.2l0.8-0.3c2.1-0.8,3.9-2,5.4-3.6c1.5-1.6,2.6-3.5,3.2-5.5c0.3-1,0.5-2,0.6-3.1c0.1-1,0-2.1,0.1-3.1
	c0-4.1,0-8.2,0-12.1c0-15.6,0-29.3,0.1-40.7c0-2.8,0-5.5,0-8c0-1.3,0-2.5,0-3.7c0-1.2,0-2.3-0.1-3.4c-0.3-2.2-1-4.1-2-5.7
	c-1-1.6-2.2-2.8-3.4-3.8c-2.4-1.9-4.8-2.5-6.3-2.8c-0.8-0.1-1.4-0.2-1.8-0.2C123.7,267.5,123.5,267.5,123.5,267.5z"/>
	<path fill="#FFFFFF" d="M352.6,388.8h113.6c6.3,0,11.5-5.1,11.5-11.5v-87.9c0-6.3-5.1-11.5-11.5-11.5H352.6
	c-6.3,0-11.5,5.1-11.5,11.5v87.9C341.2,383.7,346.3,388.8,352.6,388.8z"/>
	<path fill="#455A64" d="M403.9,385.5c-1.4,3.4-28.5,28.8-28.5,28.8v-28.8H403.9z"/>
	<path fill="#FFBF9D" d="M393.4,362.2c0-3.5,0-6.4,0-6.8c0,0-11.8-1.1-12.7-12.8c-0.4-5.7-0.3-17.4-0.1-28
							c0.2-11.4,9.2-20.7,20.6-21.4l1.1-0.1c12.2,0,19.1,10.4,18.8,22.6l-0.4,45.9l-19.8,15.9l-1.4-0.1L393.4,362.2z"/>
	<path fill="#FF9A6C" d="M393.4,355.5c0,0,7.4,0,15-5.4c0,0-3.2,8.8-15,8.4L393.4,355.5z"/>
	<path fill="#263238" d="M400.6,319.7c0.2,0.2,1.6-0.8,3.6-0.9c2-0.1,3.4,1,3.6,0.7c0.1-0.1-0.1-0.5-0.8-1
											c-0.6-0.5-1.7-0.9-2.9-0.9c-1.2,0-2.2,0.5-2.8,1C400.7,319.1,400.5,319.6,400.6,319.7z"/>
	<path fill="#263238" d="M402,325c0,0.8,0.7,1.5,1.6,1.5c0.9,0,1.6-0.7,1.5-1.5c0-0.8-0.7-1.5-1.6-1.5
										C402.7,323.5,402,324.2,402,325z"/>
	<path fill="#263238" d="M395.5,333.3c0-0.1-1.1-0.2-3-0.4c-0.5,0-0.9-0.1-1-0.4c-0.1-0.3,0-0.8,0.2-1.4
										c0.4-1.1,0.7-2.3,1.2-3.6c1.6-5.1,2.7-9.3,2.5-9.3c-0.2-0.1-1.7,4-3.3,9.1c-0.4,1.3-0.7,2.5-1.1,3.6
										c-0.1,0.5-0.4,1.1-0.1,1.8c0.1,0.3,0.5,0.6,0.8,0.6c0.3,0.1,0.6,0.1,0.8,0.1C394.4,333.4,395.5,333.4,395.5,333.3z"/>
	<path fill="#263238" d="M401.6,313.4c0.2,0.4,1.8,0.1,3.6,0.3c1.9,0.1,3.4,0.6,3.6,0.1c0.1-0.2-0.2-0.6-0.8-1
						c-0.6-0.4-1.6-0.7-2.7-0.8c-1.1-0.1-2.1,0.2-2.8,0.5C401.8,312.8,401.5,313.2,401.6,313.4z"/>
	<path fill="#263238" d="M383.2,314.5c0.2,0.4,1.7,0,3.6-0.1c1.9-0.1,3.4,0.2,3.6-0.1c0.1-0.2-0.2-0.5-0.9-0.8
						c-0.6-0.3-1.6-0.5-2.7-0.5c-1.1,0-2.1,0.3-2.7,0.6C383.4,314,383.1,314.3,383.2,314.5z"/>
	<path fill="#FFBF9D" d="M420.7,324.5c0.2-0.1,7.9-2.9,8.1,5.2c0.2,8-7.9,6.6-7.9,6.4C420.9,335.8,420.7,324.5,420.7,324.5z"/>
	<path fill="#FF9A6C" d="M423.3,332.9c0,0,0.1,0.1,0.4,0.2c0.2,0.1,0.6,0.2,1,0c0.8-0.3,1.5-1.7,1.5-3.2c0-0.7-0.2-1.4-0.4-2
			c-0.3-0.6-0.7-1-1.1-1c-0.4-0.1-0.7,0.2-0.8,0.4c-0.1,0.2,0,0.4-0.1,0.4c0,0-0.2-0.1-0.1-0.5c0-0.2,0.1-0.4,0.3-0.5
			c0.2-0.2,0.5-0.2,0.8-0.2c0.6,0,1.2,0.6,1.5,1.2c0.3,0.6,0.5,1.4,0.5,2.2c0,1.6-0.8,3.2-1.9,3.5c-0.6,0.2-1,0-1.3-0.2
			C423.3,333.1,423.3,333,423.3,332.9z"/>
	<path fill="#263238" d="M398,340.1c-0.1-0.2,1.5-0.7,2.6-2.1c0.6-0.7,0.9-1.5,1.1-2.1c0.2-0.6,0.4-0.9,0.5-0.9
	c0.1,0,0.1,0.4-0.1,1.1c-0.1,0.6-0.4,1.5-1.1,2.3c-0.6,0.8-1.5,1.3-2.1,1.5C398.4,340.1,398,340.1,398,340.1z"/>
	<path fill="#263238" d="M431.5,311.7c-1.6-2.9-2-6.2-2.9-9.4c-0.9-3.2-2.6-6.5-5.7-7.6l-0.1,0c-2.8-1.2-6.2-1.2-8.5,0.7
	c-0.5-4.2-4.1-7.5-8.2-8.7c-4.1-1.1-10.6-0.6-14.5,1c-3,1.2-6,3.6-9.6,7.2c-1.5,1.5-2.9,3.2-4.2,4.9l-3.7,10.9l3,5.8
	c0.2,0.4,0.4,0.8,0.6,1.2l0,0l2.6,12.1c0.2-3.3,0.1-14.8,0.3-18.1c5.1-0.2,9.7-2.1,13.2-5.9c1.8-2,3.3-4.5,5.7-5.6
	c3.1-1.5,6.8-0.3,10.1,0.8l-0.1-0.1c1.7,0.8,3.2,1.9,4.5,3.3c-0.8,6.5-0.2,13.1,1.7,19.4c0.3,0.9,1.1,2.9,2,3.2
	c1.8,0.7,2.3-1.1,3.4-2.1c0.8-0.7,2-0.8,3.3-0.8c0.8-2,1.6-5.4,2.3-8.3c1.1,0.3,2.2,0.4,3.4,0.3c-0.3-0.8-0.7-1.7-1-2.5
	c0.4,0.3,0.9,0.6,1.4,0.7c0.5,0.1,1.1-0.1,1.4-0.6C432.3,313,431.9,312.3,431.5,311.7z"/>
	<path fill="#455A64" d="M410.7,296.7c0,0,0.5,0.3,1.2,1.1c0.7,0.8,1.4,2.1,1.7,3.9c0.2,0.9,0.3,1.9,0.3,3c0,1.1-0.1,2.2-0.2,3.4
	c-0.1,1.2-0.2,2.5-0.1,3.8c0,0.7,0.1,1.3,0.2,2c0.1,0.7,0.3,1.4,0.8,2c0.4,0.5,1.1,0.7,1.6,0.6c0.6-0.1,1.1-0.4,1.5-0.8
	c0.8-0.9,1-2,1.2-3l-0.2,0c0.4,0.9,0.8,1.8,1.4,2.5c0.6,0.7,1.4,1.2,2.3,1.3c0.4,0,0.8,0,1.2-0.2c0.4-0.2,0.6-0.5,0.8-0.8
	c0.2-0.3,0.3-0.7,0.3-1c0-0.3-0.1-0.7-0.4-0.9l-0.1,0.1c0.9,1,1.8,1.6,2.5,1.9c0.3,0.2,0.6,0.3,0.8,0.3c0.2,0.1,0.3,0.1,0.3,0.1
	c0,0-0.1,0-0.3-0.1c-0.2-0.1-0.4-0.2-0.8-0.3c-0.6-0.3-1.6-0.9-2.4-1.9l-0.1,0.1c0.4,0.4,0.4,1.2,0.1,1.7c-0.2,0.3-0.4,0.6-0.8,0.7
	c-0.3,0.2-0.7,0.2-1.1,0.2c-0.8-0.1-1.5-0.5-2.1-1.2c-0.6-0.7-1-1.5-1.3-2.4l-0.2-0.4l-0.1,0.4c-0.2,1-0.4,2-1.1,2.8
	c-0.3,0.4-0.8,0.7-1.3,0.7c-0.5,0.1-1.1-0.1-1.4-0.5c-0.4-0.5-0.6-1.2-0.7-1.8c-0.1-0.7-0.2-1.3-0.2-2c-0.1-1.3,0-2.6,0.1-3.8
	c0.1-1.2,0.2-2.4,0.2-3.5c0-1.1-0.1-2.1-0.3-3c-0.4-1.8-1.2-3.2-1.9-3.9C411.3,296.9,410.7,296.7,410.7,296.7z"/>
	<path fill="#455A64" d="M374.4,307.6C374.4,307.6,374.4,307.6,374.4,307.6c0.2,0.1,0.3,0.2,0.4,0.3c0.1,0.1,0.3,0.2,0.5,0.3
	c0.2,0.1,0.4,0.3,0.7,0.4c1.1,0.5,2.8,1.1,5,1c2.2-0.1,4.8-0.8,7.1-2.5c2.4-1.7,4.4-4.1,6.2-6.9c0.9-1.4,1.6-2.9,2.4-4.2
	c0.8-1.3,1.6-2.6,2.7-3.5c1-1,2.2-1.7,3.4-2c0.6-0.2,1.2-0.2,1.8-0.2c0.6,0,1.1,0.2,1.6,0.3c1,0.4,1.8,0.9,2.4,1.5
	c0.6,0.6,1,1.2,1.3,1.7c0.5,1.1,0.5,1.8,0.6,1.8c0,0,0,0,0-0.1c0-0.1,0-0.2-0.1-0.4c-0.1-0.3-0.2-0.8-0.4-1.3
	c-0.3-0.5-0.7-1.2-1.3-1.8c-0.6-0.6-1.4-1.2-2.5-1.6c-0.5-0.2-1.1-0.3-1.7-0.4c-0.6,0-1.2,0-1.9,0.2c-1.3,0.3-2.5,1.1-3.5,2
	c-1.1,1-1.9,2.2-2.7,3.6c-0.8,1.3-1.5,2.8-2.4,4.2c-1.7,2.8-3.8,5.2-6.1,6.9c-2.3,1.7-4.8,2.4-7,2.5c-2.1,0.1-3.9-0.4-4.9-0.9
	C374.9,308,374.4,307.5,374.4,307.6z"/>
	<path fill="#263238" d="M382.7,320.2c0.2,0.2,1.6-0.8,3.6-0.9c2-0.1,3.4,1,3.6,0.7c0.1-0.1-0.1-0.5-0.8-1c-0.6-0.5-1.7-0.9-2.9-0.9
	c-1.2,0-2.2,0.5-2.8,1C382.8,319.6,382.6,320.1,382.7,320.2z"/>
	<path fill="#263238" d="M385.7,325.3c0,0.8,0.7,1.5,1.6,1.5c0.9,0,1.6-0.7,1.5-1.5c0-0.8-0.7-1.5-1.6-1.5
	C386.4,323.8,385.7,324.4,385.7,325.3z"/>
	<path fill="#263238" d="M379,298.5c-1,1.3-2.5,2.5-4.2,2.3c-0.5-0.1-1.7-0.5-1.7-0.5c-0.6,0.3-0.4,2.3,0,2.9
	c0.4,0.5,1.2,1.3,1.2,1.3c-1.9,1-3.7,0.5-5.7-0.2c0.4,3.5,2.7,6.7,6,8.1c1,0.4,2.3,0.7,3.2,0.1c0.8-0.5,1.2-1.6,1.4-2.5
	c0.9-3.5,1.4-7.1,1.4-10.8L379,298.5z"/>
	<path fill="#455A64" d="M366.6,375.5l0.2-0.3c9.4-9.9,26.7-13.3,26.7-13.3s1.1,6.5,10.7,7.2c9.7,0.7,16.8-9.1,16.8-9.1l12.9,1.8
	c0,0,6.5,0.8,10.5,3.1c9.1,5.4,14,23.9,14,23.9l-99.6,0.4L366.6,375.5z"/>
	<path fill="#263238" d="M357.5,278c0,0-0.2,0-0.7,0.1c-0.2,0-0.5,0-0.9,0.1c-0.3,0-0.7,0.1-1.2,0.2c-1.8,0.3-4.5,1-7.2,3.2
	c-1.4,1.1-2.7,2.5-3.9,4.3c-1.1,1.8-2,4-2.3,6.5c-0.2,1.2-0.1,2.6-0.1,3.9c0,1.4,0,2.8,0,4.2c0,2.9,0,6,0,9.2c0,13,0,28.7,0.1,46.6
	c0,4.5,0,9.1,0,13.8c0,1.2,0,2.4,0.1,3.6c0.1,1.2,0.3,2.4,0.6,3.5c0.7,2.3,2,4.5,3.6,6.3c1.7,1.8,3.8,3.3,6.2,4.1l0.9,0.3l0.9,0.2
	c0.6,0.2,1.2,0.2,1.9,0.3c1.3,0.1,2.6,0.1,3.9,0.1c5.2,0,10.6,0,16,0l0.2,0l0,0.2c0,8,0,16.6,0,25.4l-0.4-0.2
	c4.2-4,8.5-8.1,12.8-12.3c4.3-4.2,8.7-8.5,13-13.1l0.1-0.1h0.1c13.5,0,27.7,0,42.1,0c4.3,0,8.6,0,12.9,0c1.1,0,2.1,0,3.2,0
	c1.1,0,2.1,0,3.2-0.1c2.1-0.2,4.1-0.8,6-1.7c3.7-1.9,6.6-5.2,7.9-9.1c0.7-1.9,0.9-4,0.9-6c0-2.1,0-4.1,0-6.2c0-16.4,0-32.1,0-47.2
	c0-7.5,0-14.8,0-22c0-1.8,0-3.5-0.3-5.2c-0.4-1.7-1-3.3-1.8-4.8c-0.8-1.5-1.9-2.8-3.2-3.9c-1.2-1.1-2.6-2.1-4.1-2.7
	c-1.5-0.7-3.1-1.2-4.7-1.3c-1.6-0.2-3.2-0.1-4.8-0.1c-3.2,0-6.4,0-9.5,0c-6.2,0-12.2,0-17.8,0c-22.7,0-41.1-0.1-53.8-0.1
	c-6.3,0-11.3,0-14.6,0c-1.7,0-2.9,0-3.8,0C358,278,357.5,278,357.5,278s0.4,0,1.3,0c0.9,0,2.1,0,3.8,0c3.4,0,8.3,0,14.6,0
	c12.7,0,31.1,0,53.8-0.1c5.7,0,11.6,0,17.8,0c3.1,0,6.3,0,9.5,0c1.6,0,3.2-0.1,4.9,0.1c1.7,0.2,3.3,0.7,4.8,1.4
	c1.6,0.7,3,1.7,4.3,2.8c1.3,1.2,2.4,2.5,3.3,4c0.9,1.5,1.5,3.2,1.9,4.9c0.4,1.7,0.3,3.6,0.3,5.3c0,7.1,0,14.4,0,22
	c0,15,0,30.8,0,47.2c0,2,0,4.1,0,6.2c0,2.1-0.2,4.2-0.9,6.2c-1.4,4-4.3,7.5-8.2,9.4c-1.9,1-4,1.6-6.2,1.8c-1.1,0.1-2.2,0.1-3.2,0.1
	c-1.1,0-2.1,0-3.2,0c-4.3,0-8.6,0-12.9,0c-14.4,0-28.5,0-42.1,0l0.2-0.1c-4.2,4.6-8.7,8.9-13,13.2c-4.3,4.2-8.6,8.3-12.8,12.3
	l-0.4,0.4l0-0.6c0-8.8,0-17.4,0-25.4l0.2,0.2c-5.5,0-10.8,0-16,0c-1.3,0-2.6,0-3.9-0.1c-0.6-0.1-1.3-0.2-1.9-0.4l-0.9-0.2l-0.9-0.3
	c-2.4-0.9-4.6-2.4-6.3-4.2c-1.7-1.9-3-4.1-3.7-6.4c-0.3-1.2-0.6-2.4-0.7-3.6c-0.1-1.2-0.1-2.4-0.1-3.6c0-4.7,0-9.4,0-13.8
	c0-17.9,0-33.6,0.1-46.6c0-3.2,0-6.3,0-9.2c0-1.4,0-2.9,0-4.2c0-1.4,0-2.7,0.2-3.9c0.3-2.5,1.2-4.8,2.4-6.6c1.1-1.8,2.5-3.3,3.9-4.3
	c2.8-2.2,5.5-2.9,7.3-3.2c0.5-0.1,0.8-0.1,1.2-0.2c0.3,0,0.6,0,0.9,0C357.3,278,357.5,278,357.5,278z"/>
</svg>