<?xml version="1.0" encoding="UTF-8"?>
<svg id="Capa_2" data-name="Capa 2" xmlns="http://www.w3.org/2000/svg" viewBox="0 0 667.3 163.87">
  <g id="Capa_1-2" data-name="Capa 1">
    <path d="m36.93,88.86c16.65,0,23.21-9.89,24.17-27.11h1.71c0,8.28-.57,16.65-2.19,25.02h31.87v-37.1l-34.53-.38c0,7.8-1.71,12.84-10.66,12.84-6.66,0-10.84-5.52-10.84-16.93s3.71-18.46,12.08-18.46c5.14,0,9.61,2.28,9.61,11.04,0,2.09-.29,4.66-.86,7.61l33.11-3.33c.57-3.04.86-5.99.86-8.66C91.25,10.56,71.55,0,49.96,0,21.99,0,3.44,16.27,3.44,46.43c0,25.02,13.89,42.43,33.49,42.43Zm107.32,0c25.97,0,45.57-14.75,45.57-44.43S170.22,0,144.24,0s-45.57,14.65-45.57,44.43,19.6,44.43,45.57,44.43Zm-12.65-44.43c0-10.18,3.8-16.46,12.65-16.46s12.65,6.28,12.65,16.46-3.81,16.36-12.65,16.36-12.65-6.18-12.65-16.36Zm128.44,43.1c7.9,0,15.22-.86,22.17-2.38l1.52-31.3c-11.7,2.38-20.26,3.33-28.73,3.33-11.23,0-14.65-1.52-14.94-5.8,4,.19,7.61.28,10.46.28,12.65,0,33.2-3.8,33.2-23.4,0-23.69-20.55-26.83-46.05-26.83-12.46,0-25.59.29-41.29.67.76,9.23,1.14,26.16,1.14,42.34s-.38,32.82-1.14,42.33h35.39c-.48-6.37-.86-17.79-.95-29.59h2c.95,20.55,6.66,30.35,27.21,30.35Zm-29.4-49.09c0-5.61.1-9.99.19-13.61,3.04-.28,5.99-.38,8.56-.48,7.61-.1,13.61.57,13.61,6.75,0,7.04-5.99,7.52-13.61,7.52-2.57,0-5.61-.1-8.75-.19Zm60.99-14.65h25.88c.29,5.99.48,13.41.48,20.65s-.19,14.56-.48,20.64h-25.88v21.69h85.72v-21.69h-25.78c-.29-5.99-.48-13.41-.48-20.64s.19-14.56.48-20.65h25.78V2.09h-85.72v21.69Zm95.05,62.98h86.48v-34.34c-12.18.86-26.64,1.43-37.58,1.62-12.84.19-12.94,13.98-14.08,23.12h-1.81c.76-9.23,1.24-21.22,1.24-32.73,0-15.89.38-32.92,1.14-42.34h-35.39c.76,9.23,1.14,26.16,1.14,42.34s-.38,32.82-1.14,42.33Zm95.14,0h86.48v-34.34c-12.18.86-26.64,1.43-37.58,1.62-12.84.19-12.94,13.98-14.08,23.12h-1.81c.76-9.23,1.24-21.22,1.24-32.73,0-15.89.38-32.92,1.14-42.34h-35.39c.76,9.23,1.14,26.16,1.14,42.34s-.38,32.82-1.14,42.33Zm91.72,0h33.68l3.42-18.84h18.65l3.42,18.84h33.68c-6.75-25.4-13.6-57.37-18.55-84.67h-55.84c-4.95,27.3-11.7,59.27-18.46,84.67Zm40.05-35.01l1.33-7.32c1.33-7.42,3.23-17.41,4.09-29.68h1.81c.86,12.27,2.76,22.26,4.09,29.68l1.33,7.32h-12.65Z"/>
    <g>
      <path d="m10.97,109c.08-.31.38-.54.69-.54h.85c.38,0,.62.15.77.54l15.85,47.25h.15l15.93-47.25c.15-.38.38-.54.77-.54h.85c.31,0,.62.23.69.54l10.93,53.1c.15.77-.15,1-.85,1h-1.85c-.46,0-.85-.38-.92-.85l-8.7-45.09h-.15l-15.54,46.09c-.15.46-.62.62-1.08.62h-.31c-.38,0-.85-.08-1-.62l-15.54-46.09h-.15l-8.7,45.09c-.08.46-.46.85-.92.85H.89c-.69,0-1-.23-.85-1l10.93-53.1Z"/>
      <path d="m93.54,162.18l23.7-53.56c.15-.31.54-.54.92-.54h.23c.38,0,.77.08,1,.54l23.47,53.56c.15.46.15.92-.69.92h-2c-.54,0-.92-.38-1.08-.69l-6.23-14.16h-29.4l-6.16,14.16c-.15.31-.54.69-1.08.69h-2.15c-.54,0-.77-.31-.54-.92Zm38.01-16.93l-13.16-31.01h-.15l-13.39,31.01h26.7Z"/>
      <path d="m182.27,110.24c0-.54.38-1,1-1h19.08c9.39,0,17.16,7.08,17.16,16.47,0,7.77-5.39,14-12.7,16.08l11.23,19.93c.38.62.23,1.38-.54,1.38h-2.39c-.54,0-.85-.23-1.08-.69l-11.16-20.16c-1,.08-1.85.08-2.85.08h-14.16v19.78c0,.54-.46,1-1.23,1h-1.38c-.54,0-1-.46-1-1v-51.86Zm19.93,28.86c7.39,0,13.62-5.77,13.62-13.39s-6.23-12.93-13.7-12.93h-16.16v26.32h16.24Z"/>
      <path d="m263.07,110.39c0-.69.46-1.15,1.15-1.15h1.39c.69,0,1.15.46,1.15,1.15v23.78l26.16-24.39c.62-.54.85-.54,1.54-.54h2.15c.85,0,.92.85.46,1.31l-26.78,24.85,27.62,26.39c.46.38.31,1.31-.69,1.31h-2.46c-.69,0-1.08-.15-1.69-.77l-26.32-25.55v25.32c0,.77-.54,1-1.15,1h-1.54c-.62,0-1-.38-1-1v-51.71Z"/>
      <path d="m338.94,110.24c0-.54.46-1,1-1h30.86c.54,0,1,.46,1,1v1.31c0,.54-.46,1-1,1h-28.16v21.24h24.39c.54,0,1,.46,1,1v1.31c0,.54-.46,1-1,1h-24.39v22.78h28.16c.54,0,1,.46,1,1v1.23c0,.54-.46,1-1,1h-30.86c-.54,0-1-.46-1-1v-51.86Z"/>
      <path d="m423.9,112.54h-14.7c-.77,0-1-.46-1-1.15v-1.15c0-.62.46-1,1-1h33.09c.62,0,1,.46,1,1v1.31c0,.54-.38,1-1,1h-14.77v49.56c0,.54-.46,1-1.23,1h-1.39c-.54,0-1-.46-1-1v-49.56Z"/>
      <path d="m482.84,110.24c0-.54.46-1,1-1h1.69c.54,0,1,.46,1,1v51.86c0,.62-.54,1-1.08,1h-1.62c-.54,0-1-.46-1-1v-51.86Z"/>
      <path d="m533.63,109.47c0-.62.54-1,1.15-1h1.31l36.94,48.09h.08v-46.32c0-.54.46-1,1-1h1.54c.54,0,1,.46,1,1v52.63c0,.69-.62,1-1.23,1h-1c-.08,0-.69-.23-37.24-48.56h-.08v46.79c0,.54-.46,1-1,1h-1.46c-.54,0-1-.46-1-1v-52.63Z"/>
      <path d="m647.76,108.47c7.77,0,13.62,2.62,18.62,7.16.38.38.46,1,.08,1.39-.38.46-.85.92-1.23,1.31-.46.54-.85.46-1.31,0-4.31-4-9.93-6.46-16.24-6.46-13.39,0-23.93,10.93-23.93,24.24s10.54,24.24,23.93,24.24c9.39,0,15.24-3.62,16.01-4.23v-14.47h-13.16c-.85,0-1-.31-1-1v-1.54c0-.62.15-.92,1-.92h15.77c.54,0,1,.46,1,.92v17.85c0,1.15-.46,1.54-1.08,2-1.38.92-8.39,4.92-18.47,4.92-15.47,0-27.86-12.16-27.86-27.62s12.39-27.78,27.86-27.78Z"/>
    </g>
  </g>
</svg>